<?xml version="1.0" encoding="UTF-8" standalone="no"?>
<svg
   xmlns:dc="http://purl.org/dc/elements/1.1/"
   xmlns:cc="http://creativecommons.org/ns#"
   xmlns:rdf="http://www.w3.org/1999/02/22-rdf-syntax-ns#"
   xmlns:svg="http://www.w3.org/2000/svg"
   xmlns="http://www.w3.org/2000/svg"
   xmlns:sodipodi="http://sodipodi.sourceforge.net/DTD/sodipodi-0.dtd"
   xmlns:inkscape="http://www.inkscape.org/namespaces/inkscape"
   viewBox="0 0 175 175"
   version="1.1"
   id="svg105"
   sodipodi:docname="Soviet Hammer and Sickle_ 1923-1924, gold).svg"
   inkscape:version="0.92.4 (5da689c313, 2019-01-14)">
  <metadata
     id="metadata109">
    <rdf:RDF>
      <cc:Work
         rdf:about="">
        <dc:format>image/svg+xml</dc:format>
        <dc:type
           rdf:resource="http://purl.org/dc/dcmitype/StillImage" />
        <dc:title></dc:title>
      </cc:Work>
    </rdf:RDF>
  </metadata>
  <sodipodi:namedview
     pagecolor="#ffffff"
     bordercolor="#666666"
     borderopacity="1"
     objecttolerance="10"
     gridtolerance="10"
     guidetolerance="10"
     inkscape:pageopacity="0"
     inkscape:pageshadow="2"
     inkscape:window-width="1366"
     inkscape:window-height="693"
     id="namedview107"
     showgrid="false"
     inkscape:snap-bbox="true"
     inkscape:snap-global="false"
     inkscape:zoom="1.3485714"
     inkscape:cx="47.645616"
     inkscape:cy="53.355994"
     inkscape:window-x="0"
     inkscape:window-y="28"
     inkscape:window-maximized="1"
     inkscape:current-layer="svg105">
    <inkscape:grid
       type="xygrid"
       id="grid3815" />
  </sodipodi:namedview>
  <defs
     id="defs99">
    <style
       id="style97">.a{fill-rule:evenodd;}</style>
  </defs>
  <polygon
     class="a"
     points="32.87 40.86 0 78.08 14.02 94.99 59.93 40.01 32.87 40.86"
     id="polygon101"
     style="fill:#fcd20e;fill-opacity:1" />
  <path
     class="a"
     d="M163.48,155.53l-11-9.29A78.77,78.77,0,0,0,164.36,132c15.51-23,12.34-59.39,1.5-81.67C147.61,16,106.61,3.37,82.5,2.22,74.91,1.85,72.44,2.88,68,3.29a144.51,144.51,0,0,1,49.78,20.43C138,37.07,155.7,59,154.2,94.87c-1.07,18.17-6.83,31.69-16.4,39.06L59.45,68.05l12.2-14.5L63.56,40.62,16.31,96.44,31.9,99.82l15-17.76,66.47,57.88c-9-1.05-19.26-4.91-30.59-12-1.27-.79-4.94-4-6.24-4.89,1.6-6.66.41-9.62-8.54-9.23L63.57,118c-3.19,2.38-4.47,7.08-12.75,10.08-6.1,2.21-11,10.49-13.32,17-3.34,9.39-8.28,12.37-12.75,17.3-3.3,13.08,8.87,8.46,10.76,7.69,4.58-5.28,6.14-10.33,14.58-15,6-3.35,12.12-8,14.25-14.94.66-2.16,3-3.59,5.18-5.22,23.78,23.26,45.82,29.13,64.25,22.86l15,13c2.43,1.74,4.27,2.24,5.72,2.08C161.65,172,170.41,160.09,163.48,155.53Z"
     id="path103"
     style="fill:#fcd20e;fill-opacity:1" />
</svg>
